<?xml version="1.0" standalone="no"?>
<!DOCTYPE svg PUBLIC "-//W3C//DTD SVG 20010904//EN"
 "http://www.w3.org/TR/2001/REC-SVG-20010904/DTD/svg10.dtd">
<svg version="1.0" xmlns="http://www.w3.org/2000/svg"
 width="900.000000pt" height="593.000000pt" viewBox="0 0 900.000000 593.000000"
 preserveAspectRatio="xMidYMid meet">
<metadata>
Created by potrace 1.16, written by Peter Selinger 2001-2019
</metadata>
<g transform="translate(0.000000,593.000000) scale(0.100000,-0.100000)"
fill="#000000" stroke="none">
<path d="M4365 5513 c-957 -47 -1822 -647 -2209 -1531 l-45 -102 178 0 179 0
26 -142 c97 -518 114 -601 119 -588 3 8 33 166 67 350 34 184 64 345 67 358 5
22 6 22 214 22 l209 0 0 -827 c0 -454 2 -824 5 -822 3 4 255 1625 255 1645 0
2 100 3 223 2 l222 -3 117 -750 116 -750 1 753 1 752 273 0 272 0 40 -27 c69
-46 146 -115 183 -164 20 -27 38 -47 40 -45 2 3 -3 49 -12 104 -9 55 -16 105
-16 111 0 8 46 11 167 9 l168 -3 69 -447 c39 -246 73 -444 77 -440 3 4 37 203
74 442 37 239 70 439 74 443 4 4 218 5 474 1 l467 -7 0 -169 0 -168 -135 0
-135 0 0 -185 0 -185 135 0 135 0 0 -195 0 -195 -135 0 -135 0 0 -175 0 -175
135 0 135 0 0 -180 0 -180 -300 0 -300 0 -1 853 -1 852 -148 -850 c-82 -467
-149 -851 -149 -853 -1 -1 -87 -1 -193 0 l-192 3 -91 570 c-49 314 -91 559
-93 545 -18 -138 -87 -301 -163 -384 l-51 -56 121 -335 c67 -184 121 -337 121
-340 0 -3 -77 -4 -172 -3 l-172 3 -108 295 -107 295 0 -297 -1 -298 -320 0
-319 0 -10 38 c-6 20 -15 58 -22 85 l-11 47 -124 0 -123 0 -10 -37 c-6 -21
-15 -59 -22 -85 l-11 -48 -324 0 -324 0 -2 326 -3 327 -75 -329 -75 -329 -75
-3 -75 -3 -75 327 -75 327 -3 -322 -2 -321 -135 0 c-74 0 -135 -2 -135 -4 0
-2 20 -50 45 -107 65 -148 124 -255 219 -398 380 -568 969 -961 1636 -1090
180 -35 289 -44 490 -44 413 0 758 79 1125 259 546 267 976 717 1220 1273 25
57 45 105 45 107 0 2 -72 4 -160 4 l-160 0 0 905 0 905 160 0 c90 0 160 4 160
9 0 5 -16 46 -35 91 -244 569 -695 1041 -1250 1306 -395 188 -800 269 -1240
247z"/>
<path d="M6900 3123 l0 -713 49 0 49 0 11 48 c51 239 61 620 23 867 -23 149
-78 377 -111 460 l-20 50 -1 -712z"/>
<path d="M2011 3548 c-57 -244 -78 -499 -62 -743 12 -171 41 -368 71 -468 18
-61 18 -56 19 621 1 375 -1 682 -3 682 -2 0 -13 -42 -25 -92z"/>
<path d="M4460 3269 c0 -178 3 -269 10 -269 29 0 80 32 112 69 124 145 72 414
-91 461 l-31 9 0 -270z"/>
<path d="M3651 3084 c0 -6 -17 -120 -36 -254 -19 -134 -35 -244 -35 -246 0 -2
32 -4 70 -4 l70 0 -1 38 c0 38 -66 486 -68 466z"/>
</g>
</svg>
